<mxfile host="app.diagrams.net" modified="2024-07-19T08:45:33.392Z" agent="Mozilla/5.0 (Macintosh; Intel Mac OS X 10_15_7) AppleWebKit/537.36 (KHTML, like Gecko) Chrome/126.0.0.0 Safari/537.36" etag="bE0GbFz6yXnM5e0NQtkr" version="24.6.4" type="device" pages="2">
  <diagram name="Page-1" id="x3AHU2q4Q6_sJNELVDLU">
    <mxGraphModel dx="869" dy="444" grid="1" gridSize="10" guides="1" tooltips="1" connect="1" arrows="1" fold="1" page="1" pageScale="1" pageWidth="827" pageHeight="1169" math="0" shadow="0">
      <root>
        <mxCell id="0" />
        <mxCell id="1" parent="0" />
        <mxCell id="OzeTVYTF-CJIB7F1qwKY-2" value="&lt;span style=&quot;font-size: 14px;&quot;&gt;Randomized simulation&lt;/span&gt;&lt;div&gt;&lt;span style=&quot;font-size: 14px;&quot;&gt;aka Property-based Testing&lt;/span&gt;&lt;/div&gt;" style="rounded=1;whiteSpace=wrap;html=1;align=left;spacingLeft=10;" vertex="1" parent="1">
          <mxGeometry x="160" y="200" width="200" height="40" as="geometry" />
        </mxCell>
        <mxCell id="OzeTVYTF-CJIB7F1qwKY-3" value="&lt;span style=&quot;font-size: 14px;&quot;&gt;Randomized symbolic execution&lt;/span&gt;" style="rounded=1;whiteSpace=wrap;html=1;align=left;spacingLeft=10;" vertex="1" parent="1">
          <mxGeometry x="160" y="280" width="220" height="40" as="geometry" />
        </mxCell>
        <mxCell id="OzeTVYTF-CJIB7F1qwKY-11" value="" style="shape=flexArrow;endArrow=classic;html=1;rounded=0;fillColor=#FFCCCC;strokeColor=#4D9900;gradientColor=#CCFF99;" edge="1" parent="1">
          <mxGeometry width="50" height="50" relative="1" as="geometry">
            <mxPoint x="770" y="60" as="sourcePoint" />
            <mxPoint x="770" y="540" as="targetPoint" />
          </mxGeometry>
        </mxCell>
        <mxCell id="OzeTVYTF-CJIB7F1qwKY-12" value="GREATER CONFIDENCE" style="edgeLabel;html=1;align=center;verticalAlign=middle;resizable=0;points=[];rotation=90;fontSize=18;" vertex="1" connectable="0" parent="OzeTVYTF-CJIB7F1qwKY-11">
          <mxGeometry x="-0.0768" y="5" relative="1" as="geometry">
            <mxPoint x="23" y="12" as="offset" />
          </mxGeometry>
        </mxCell>
        <mxCell id="OzeTVYTF-CJIB7F1qwKY-14" value="Apalache" style="swimlane;horizontal=0;whiteSpace=wrap;html=1;strokeColor=#B3B3B3;fontColor=#808080;" vertex="1" parent="1">
          <mxGeometry x="130" y="270" width="420" height="180" as="geometry" />
        </mxCell>
        <mxCell id="OzeTVYTF-CJIB7F1qwKY-4" value="&lt;span style=&quot;font-size: 14px;&quot;&gt;Bounded model checking&lt;/span&gt;" style="rounded=1;whiteSpace=wrap;html=1;align=left;spacingLeft=10;" vertex="1" parent="OzeTVYTF-CJIB7F1qwKY-14">
          <mxGeometry x="30" y="70" width="280" height="40" as="geometry" />
        </mxCell>
        <mxCell id="OzeTVYTF-CJIB7F1qwKY-5" value="&lt;font style=&quot;font-size: 14px;&quot;&gt;Checking inductive invariants (with some boilerplate)&lt;/font&gt;" style="rounded=1;whiteSpace=wrap;html=1;align=left;spacingLeft=10;" vertex="1" parent="OzeTVYTF-CJIB7F1qwKY-14">
          <mxGeometry x="30" y="130" width="340" height="40" as="geometry" />
        </mxCell>
        <mxCell id="OzeTVYTF-CJIB7F1qwKY-18" value="" style="shape=curlyBracket;whiteSpace=wrap;html=1;rounded=1;flipH=1;labelPosition=right;verticalLabelPosition=middle;align=left;verticalAlign=middle;fontColor=#999999;strokeColor=#A9C4EB;" vertex="1" parent="OzeTVYTF-CJIB7F1qwKY-14">
          <mxGeometry x="380" y="10" width="20" height="160" as="geometry" />
        </mxCell>
        <mxCell id="OzeTVYTF-CJIB7F1qwKY-20" value="&lt;font color=&quot;#7ea6e0&quot;&gt;quint verify&lt;/font&gt;" style="text;html=1;align=center;verticalAlign=middle;whiteSpace=wrap;rounded=0;rotation=90;" vertex="1" parent="OzeTVYTF-CJIB7F1qwKY-14">
          <mxGeometry x="370" y="75" width="80" height="30" as="geometry" />
        </mxCell>
        <mxCell id="OzeTVYTF-CJIB7F1qwKY-15" value="Quint Simulator" style="swimlane;horizontal=0;whiteSpace=wrap;html=1;strokeColor=#B3B3B3;fontColor=#808080;" vertex="1" parent="1">
          <mxGeometry x="130" y="60" width="290" height="200" as="geometry">
            <mxRectangle x="130" y="110" width="40" height="110" as="alternateBounds" />
          </mxGeometry>
        </mxCell>
        <mxCell id="OzeTVYTF-CJIB7F1qwKY-1" value="&lt;span style=&quot;font-size: 14px;&quot;&gt;Parser&lt;/span&gt;&lt;div&gt;&lt;span style=&quot;font-size: 14px;&quot;&gt;Type &amp;amp; Effects checker&lt;/span&gt;&lt;/div&gt;" style="rounded=1;whiteSpace=wrap;html=1;align=left;spacingLeft=10;" vertex="1" parent="OzeTVYTF-CJIB7F1qwKY-15">
          <mxGeometry x="30" y="20" width="160" height="40" as="geometry" />
        </mxCell>
        <mxCell id="OzeTVYTF-CJIB7F1qwKY-16" value="&lt;font style=&quot;font-size: 14px;&quot;&gt;Interactive exploration&lt;/font&gt;&lt;div&gt;&lt;font style=&quot;font-size: 14px;&quot;&gt;&amp;amp; Test runs&lt;/font&gt;&lt;/div&gt;" style="rounded=1;whiteSpace=wrap;html=1;align=left;spacingLeft=10;" vertex="1" parent="OzeTVYTF-CJIB7F1qwKY-15">
          <mxGeometry x="30" y="80" width="160" height="40" as="geometry" />
        </mxCell>
        <mxCell id="OzeTVYTF-CJIB7F1qwKY-17" value="" style="shape=curlyBracket;whiteSpace=wrap;html=1;rounded=1;flipH=1;labelPosition=right;verticalLabelPosition=middle;align=left;verticalAlign=middle;fontColor=#999999;strokeColor=#A9C4EB;" vertex="1" parent="OzeTVYTF-CJIB7F1qwKY-15">
          <mxGeometry x="230" y="70" width="20" height="120" as="geometry" />
        </mxCell>
        <mxCell id="OzeTVYTF-CJIB7F1qwKY-19" value="&lt;font color=&quot;#7ea6e0&quot;&gt;quint run&lt;/font&gt;" style="text;html=1;align=center;verticalAlign=middle;whiteSpace=wrap;rounded=0;rotation=90;" vertex="1" parent="OzeTVYTF-CJIB7F1qwKY-15">
          <mxGeometry x="230" y="115" width="60" height="30" as="geometry" />
        </mxCell>
        <mxCell id="OzeTVYTF-CJIB7F1qwKY-27" value="&lt;font color=&quot;#7ea6e0&quot;&gt;quint typecheck&lt;/font&gt;" style="text;html=1;align=center;verticalAlign=middle;whiteSpace=wrap;rounded=0;rotation=90;" vertex="1" parent="OzeTVYTF-CJIB7F1qwKY-15">
          <mxGeometry x="230" y="25" width="60" height="30" as="geometry" />
        </mxCell>
        <mxCell id="OzeTVYTF-CJIB7F1qwKY-21" value="&lt;span style=&quot;font-size: 14px;&quot;&gt;Complete machine-checkable formal proofs (written by an expert)&lt;/span&gt;" style="rounded=1;whiteSpace=wrap;html=1;align=left;spacingLeft=10;" vertex="1" parent="1">
          <mxGeometry x="160" y="480" width="480" height="40" as="geometry" />
        </mxCell>
        <mxCell id="OzeTVYTF-CJIB7F1qwKY-22" value="TLAPS" style="swimlane;horizontal=0;whiteSpace=wrap;html=1;strokeColor=#B3B3B3;fontColor=#808080;" vertex="1" parent="1">
          <mxGeometry x="130" y="460" width="520" height="80" as="geometry" />
        </mxCell>
        <mxCell id="OzeTVYTF-CJIB7F1qwKY-28" value="" style="shape=flexArrow;endArrow=classic;html=1;rounded=0;fillColor=#FF6666;strokeColor=#4D9900;gradientColor=#CCFF99;gradientDirection=west;" edge="1" parent="1">
          <mxGeometry width="50" height="50" relative="1" as="geometry">
            <mxPoint x="140" y="560" as="sourcePoint" />
            <mxPoint x="640" y="560" as="targetPoint" />
          </mxGeometry>
        </mxCell>
        <mxCell id="OzeTVYTF-CJIB7F1qwKY-29" value="EFFORT + COMPUTE / TIME" style="edgeLabel;html=1;align=center;verticalAlign=middle;resizable=0;points=[];rotation=0;fontSize=18;" vertex="1" connectable="0" parent="OzeTVYTF-CJIB7F1qwKY-28">
          <mxGeometry x="-0.0768" y="5" relative="1" as="geometry">
            <mxPoint x="29" y="25" as="offset" />
          </mxGeometry>
        </mxCell>
        <mxCell id="OzeTVYTF-CJIB7F1qwKY-30" value="TLC" style="swimlane;horizontal=0;whiteSpace=wrap;html=1;strokeColor=#B3B3B3;fontColor=#808080;" vertex="1" parent="1">
          <mxGeometry x="560" y="270" width="190" height="180" as="geometry" />
        </mxCell>
        <mxCell id="OzeTVYTF-CJIB7F1qwKY-31" value="&lt;span style=&quot;font-size: 14px;&quot;&gt;Randomized&lt;/span&gt;&lt;div&gt;&lt;span style=&quot;font-size: 14px;&quot;&gt;enumeration&lt;/span&gt;&lt;/div&gt;" style="rounded=1;whiteSpace=wrap;html=1;align=left;spacingLeft=10;" vertex="1" parent="OzeTVYTF-CJIB7F1qwKY-30">
          <mxGeometry x="30" y="10" width="100" height="40" as="geometry" />
        </mxCell>
        <mxCell id="OzeTVYTF-CJIB7F1qwKY-32" value="&lt;div&gt;&lt;span style=&quot;font-size: 14px;&quot;&gt;Finite-state model checking&lt;/span&gt;&lt;/div&gt;&lt;div&gt;&lt;span style=&quot;font-size: 14px;&quot;&gt;(exhaustive enumeration)&lt;/span&gt;&lt;/div&gt;" style="rounded=1;whiteSpace=wrap;html=1;align=left;spacingLeft=10;" vertex="1" parent="OzeTVYTF-CJIB7F1qwKY-30">
          <mxGeometry x="30" y="90" width="150" height="80" as="geometry" />
        </mxCell>
      </root>
    </mxGraphModel>
  </diagram>
  <diagram id="NV-H_fDKxa6srls5Hkrf" name="Page-2">
    <mxGraphModel dx="1434" dy="733" grid="1" gridSize="10" guides="1" tooltips="1" connect="1" arrows="1" fold="1" page="1" pageScale="1" pageWidth="827" pageHeight="1169" math="0" shadow="0">
      <root>
        <mxCell id="0" />
        <mxCell id="1" parent="0" />
        <mxCell id="7muq7BeH3n2kPKs7xpSz-1" value="" style="endArrow=none;html=1;rounded=0;" edge="1" parent="1">
          <mxGeometry width="50" height="50" relative="1" as="geometry">
            <mxPoint x="80" y="120" as="sourcePoint" />
            <mxPoint x="760" y="120" as="targetPoint" />
          </mxGeometry>
        </mxCell>
        <mxCell id="7muq7BeH3n2kPKs7xpSz-2" value="" style="endArrow=none;html=1;rounded=0;" edge="1" parent="1">
          <mxGeometry width="50" height="50" relative="1" as="geometry">
            <mxPoint x="80" y="200" as="sourcePoint" />
            <mxPoint x="760" y="200" as="targetPoint" />
          </mxGeometry>
        </mxCell>
        <mxCell id="7muq7BeH3n2kPKs7xpSz-3" value="" style="endArrow=none;html=1;rounded=0;" edge="1" parent="1">
          <mxGeometry width="50" height="50" relative="1" as="geometry">
            <mxPoint x="760" y="280" as="sourcePoint" />
            <mxPoint x="760" y="280" as="targetPoint" />
          </mxGeometry>
        </mxCell>
        <mxCell id="7muq7BeH3n2kPKs7xpSz-4" value="" style="endArrow=none;html=1;rounded=0;" edge="1" parent="1">
          <mxGeometry width="50" height="50" relative="1" as="geometry">
            <mxPoint x="80" y="360" as="sourcePoint" />
            <mxPoint x="760" y="360" as="targetPoint" />
          </mxGeometry>
        </mxCell>
        <mxCell id="7muq7BeH3n2kPKs7xpSz-5" value="" style="endArrow=none;html=1;rounded=0;" edge="1" parent="1">
          <mxGeometry width="50" height="50" relative="1" as="geometry">
            <mxPoint x="80" y="440" as="sourcePoint" />
            <mxPoint x="760" y="440" as="targetPoint" />
          </mxGeometry>
        </mxCell>
        <mxCell id="7muq7BeH3n2kPKs7xpSz-8" value="&lt;font style=&quot;font-size: 20px;&quot;&gt;n1&lt;/font&gt;" style="text;html=1;align=center;verticalAlign=middle;whiteSpace=wrap;rounded=0;" vertex="1" parent="1">
          <mxGeometry x="20" y="100" width="60" height="30" as="geometry" />
        </mxCell>
        <mxCell id="7muq7BeH3n2kPKs7xpSz-9" value="&lt;font style=&quot;font-size: 20px;&quot;&gt;n2&lt;/font&gt;" style="text;html=1;align=center;verticalAlign=middle;whiteSpace=wrap;rounded=0;" vertex="1" parent="1">
          <mxGeometry x="20" y="180" width="60" height="30" as="geometry" />
        </mxCell>
        <mxCell id="7muq7BeH3n2kPKs7xpSz-10" value="&lt;font style=&quot;font-size: 20px;&quot;&gt;n3&lt;/font&gt;" style="text;html=1;align=center;verticalAlign=middle;whiteSpace=wrap;rounded=0;" vertex="1" parent="1">
          <mxGeometry x="20" y="260" width="60" height="30" as="geometry" />
        </mxCell>
        <mxCell id="7muq7BeH3n2kPKs7xpSz-11" value="&lt;font style=&quot;font-size: 20px;&quot;&gt;n4&lt;/font&gt;" style="text;html=1;align=center;verticalAlign=middle;whiteSpace=wrap;rounded=0;" vertex="1" parent="1">
          <mxGeometry x="20" y="340" width="60" height="30" as="geometry" />
        </mxCell>
        <mxCell id="7muq7BeH3n2kPKs7xpSz-12" value="&lt;font style=&quot;font-size: 20px;&quot;&gt;n5&lt;/font&gt;" style="text;html=1;align=center;verticalAlign=middle;whiteSpace=wrap;rounded=0;fontColor=#CC0000;" vertex="1" parent="1">
          <mxGeometry x="20" y="420" width="60" height="30" as="geometry" />
        </mxCell>
        <mxCell id="7muq7BeH3n2kPKs7xpSz-14" value="" style="endArrow=classic;html=1;rounded=0;strokeWidth=2;fillColor=#008a00;strokeColor=#005700;" edge="1" parent="1">
          <mxGeometry width="50" height="50" relative="1" as="geometry">
            <mxPoint x="90" y="120" as="sourcePoint" />
            <mxPoint x="160" y="360" as="targetPoint" />
          </mxGeometry>
        </mxCell>
        <mxCell id="7muq7BeH3n2kPKs7xpSz-15" value="Proposal(0, val_b1, ...)" style="text;html=1;align=center;verticalAlign=middle;whiteSpace=wrap;rounded=0;fontSize=15;" vertex="1" parent="1">
          <mxGeometry x="160" y="310" width="160" height="30" as="geometry" />
        </mxCell>
        <mxCell id="7muq7BeH3n2kPKs7xpSz-16" value="" style="endArrow=classic;html=1;rounded=0;fillColor=#0050ef;strokeColor=#001DBC;strokeWidth=2;" edge="1" parent="1">
          <mxGeometry width="50" height="50" relative="1" as="geometry">
            <mxPoint x="160" y="360" as="sourcePoint" />
            <mxPoint x="450" y="440" as="targetPoint" />
            <Array as="points">
              <mxPoint x="170" y="420" />
            </Array>
          </mxGeometry>
        </mxCell>
        <mxCell id="7muq7BeH3n2kPKs7xpSz-17" value="Commit(0, 1, val_b1)" style="text;html=1;align=center;verticalAlign=middle;whiteSpace=wrap;rounded=0;fontSize=15;" vertex="1" parent="1">
          <mxGeometry x="160" y="380" width="160" height="30" as="geometry" />
        </mxCell>
        <mxCell id="7muq7BeH3n2kPKs7xpSz-18" value="" style="endArrow=none;html=1;rounded=0;" edge="1" parent="1">
          <mxGeometry width="50" height="50" relative="1" as="geometry">
            <mxPoint x="80" y="40" as="sourcePoint" />
            <mxPoint x="760" y="40" as="targetPoint" />
          </mxGeometry>
        </mxCell>
        <mxCell id="7muq7BeH3n2kPKs7xpSz-19" value="&lt;font style=&quot;font-size: 20px;&quot;&gt;n0&lt;/font&gt;" style="text;html=1;align=center;verticalAlign=middle;whiteSpace=wrap;rounded=0;" vertex="1" parent="1">
          <mxGeometry x="20" y="20" width="60" height="30" as="geometry" />
        </mxCell>
        <mxCell id="7muq7BeH3n2kPKs7xpSz-20" value="" style="endArrow=classic;html=1;rounded=0;strokeWidth=2;fillColor=#008a00;strokeColor=#005700;" edge="1" parent="1">
          <mxGeometry width="50" height="50" relative="1" as="geometry">
            <mxPoint x="90" y="120" as="sourcePoint" />
            <mxPoint x="240" y="40" as="targetPoint" />
          </mxGeometry>
        </mxCell>
        <mxCell id="7muq7BeH3n2kPKs7xpSz-21" value="Proposal(0, val_b1, ...)" style="text;html=1;align=center;verticalAlign=middle;whiteSpace=wrap;rounded=0;fontSize=15;" vertex="1" parent="1">
          <mxGeometry x="150" y="80" width="160" height="30" as="geometry" />
        </mxCell>
        <mxCell id="7muq7BeH3n2kPKs7xpSz-23" value="Commit(0, 1, val_b1)" style="text;html=1;align=center;verticalAlign=middle;whiteSpace=wrap;rounded=0;fontSize=15;" vertex="1" parent="1">
          <mxGeometry x="300" y="380" width="160" height="30" as="geometry" />
        </mxCell>
        <mxCell id="7muq7BeH3n2kPKs7xpSz-25" value="" style="curved=1;endArrow=classic;html=1;rounded=0;fillColor=#008a00;strokeColor=#005700;strokeWidth=2;" edge="1" parent="1">
          <mxGeometry width="50" height="50" relative="1" as="geometry">
            <mxPoint x="90" y="120" as="sourcePoint" />
            <mxPoint x="320" y="120" as="targetPoint" />
            <Array as="points">
              <mxPoint x="150" y="150" />
              <mxPoint x="180" y="150" />
              <mxPoint x="240" y="150" />
              <mxPoint x="280" y="150" />
            </Array>
          </mxGeometry>
        </mxCell>
        <mxCell id="7muq7BeH3n2kPKs7xpSz-26" value="Proposal(0, val_b1, ...)" style="text;html=1;align=center;verticalAlign=middle;whiteSpace=wrap;rounded=0;fontSize=15;" vertex="1" parent="1">
          <mxGeometry x="200" y="150" width="160" height="30" as="geometry" />
        </mxCell>
        <mxCell id="7muq7BeH3n2kPKs7xpSz-27" value="" style="endArrow=classic;html=1;rounded=0;fillColor=#0050ef;strokeColor=#001DBC;strokeWidth=2;" edge="1" parent="1">
          <mxGeometry width="50" height="50" relative="1" as="geometry">
            <mxPoint x="320" y="120" as="sourcePoint" />
            <mxPoint x="470" y="440" as="targetPoint" />
            <Array as="points">
              <mxPoint x="450" y="240" />
            </Array>
          </mxGeometry>
        </mxCell>
        <mxCell id="7muq7BeH3n2kPKs7xpSz-28" value="Commit(0, 1, val_b1)" style="text;html=1;align=center;verticalAlign=middle;whiteSpace=wrap;rounded=0;fontSize=15;" vertex="1" parent="1">
          <mxGeometry x="290" y="400" width="160" height="30" as="geometry" />
        </mxCell>
        <mxCell id="7muq7BeH3n2kPKs7xpSz-29" value="" style="endArrow=classic;html=1;rounded=0;fillColor=#008a00;strokeColor=#005700;strokeWidth=2;" edge="1" parent="1">
          <mxGeometry width="50" height="50" relative="1" as="geometry">
            <mxPoint x="90" y="120" as="sourcePoint" />
            <mxPoint x="400" y="280" as="targetPoint" />
          </mxGeometry>
        </mxCell>
        <mxCell id="7muq7BeH3n2kPKs7xpSz-30" value="Proposal(0, val_b1, ...)" style="text;html=1;align=center;verticalAlign=middle;whiteSpace=wrap;rounded=0;fontSize=15;" vertex="1" parent="1">
          <mxGeometry x="140" y="220" width="160" height="30" as="geometry" />
        </mxCell>
        <mxCell id="7muq7BeH3n2kPKs7xpSz-32" value="" style="endArrow=classic;html=1;rounded=0;fillColor=#0050ef;strokeColor=#001DBC;strokeWidth=2;" edge="1" parent="1">
          <mxGeometry width="50" height="50" relative="1" as="geometry">
            <mxPoint x="400" y="280" as="sourcePoint" />
            <mxPoint x="460" y="440" as="targetPoint" />
            <Array as="points">
              <mxPoint x="440" y="300" />
            </Array>
          </mxGeometry>
        </mxCell>
        <mxCell id="7muq7BeH3n2kPKs7xpSz-33" value="Commit(0, 1, val_b1)" style="text;html=1;align=center;verticalAlign=middle;whiteSpace=wrap;rounded=0;fontSize=15;" vertex="1" parent="1">
          <mxGeometry x="160" y="360" width="160" height="30" as="geometry" />
        </mxCell>
        <mxCell id="7muq7BeH3n2kPKs7xpSz-35" value="" style="endArrow=classic;html=1;rounded=0;fillColor=#0050ef;strokeColor=#001DBC;strokeWidth=2;" edge="1" parent="1">
          <mxGeometry width="50" height="50" relative="1" as="geometry">
            <mxPoint x="240" y="40" as="sourcePoint" />
            <mxPoint x="480" y="440" as="targetPoint" />
            <Array as="points">
              <mxPoint x="400" y="70" />
              <mxPoint x="470" y="240" />
            </Array>
          </mxGeometry>
        </mxCell>
        <mxCell id="7muq7BeH3n2kPKs7xpSz-36" value="" style="endArrow=classic;html=1;rounded=0;fillColor=#fa6800;strokeColor=#C73500;strokeWidth=2;" edge="1" parent="1">
          <mxGeometry width="50" height="50" relative="1" as="geometry">
            <mxPoint x="490" y="440" as="sourcePoint" />
            <mxPoint x="560" y="360" as="targetPoint" />
          </mxGeometry>
        </mxCell>
        <mxCell id="7muq7BeH3n2kPKs7xpSz-37" value="NewView({&lt;div&gt;&amp;nbsp; justification: CommitQC({&lt;div&gt;&amp;nbsp; &amp;nbsp; vote: { block_number: 0,&lt;div&gt;&lt;div style=&quot;&quot;&gt;&lt;span style=&quot;background-color: initial;&quot;&gt;&amp;nbsp; &amp;nbsp; &amp;nbsp; view: 1,&lt;/span&gt;&lt;span style=&quot;background-color: initial;&quot;&gt;&amp;nbsp;block_hash: val_b1&lt;/span&gt;&lt;/div&gt;&lt;div style=&quot;&quot;&gt;&lt;span style=&quot;background-color: initial;&quot;&gt;&amp;nbsp; &amp;nbsp; },&lt;/span&gt;&lt;/div&gt;&lt;div&gt;&lt;div&gt;&amp;nbsp; &amp;nbsp; agg_sig: Set(n0, n1, n3, n4, n5)&lt;/div&gt;&lt;div&gt;&amp;nbsp; }),&lt;/div&gt;&lt;div&gt;&amp;nbsp; sig: n5&lt;/div&gt;&lt;div&gt;})&lt;/div&gt;&lt;/div&gt;&lt;/div&gt;&lt;/div&gt;&lt;/div&gt;" style="text;html=1;align=left;verticalAlign=middle;whiteSpace=wrap;rounded=0;fontSize=15;fillColor=#f9f7ed;strokeColor=none;" vertex="1" parent="1">
          <mxGeometry x="550" y="380" width="290" height="192.5" as="geometry" />
        </mxCell>
        <mxCell id="7muq7BeH3n2kPKs7xpSz-39" value="&lt;font style=&quot;font-size: 18px;&quot;&gt;Byzantine&lt;/font&gt;" style="text;html=1;align=center;verticalAlign=middle;whiteSpace=wrap;rounded=0;fontColor=#CC0000;fontSize=18;" vertex="1" parent="1">
          <mxGeometry x="20" y="450" width="70" height="30" as="geometry" />
        </mxCell>
        <mxCell id="7muq7BeH3n2kPKs7xpSz-42" value="" style="endArrow=none;html=1;rounded=0;" edge="1" parent="1">
          <mxGeometry width="50" height="50" relative="1" as="geometry">
            <mxPoint x="80" y="280" as="sourcePoint" />
            <mxPoint x="760" y="280" as="targetPoint" />
          </mxGeometry>
        </mxCell>
        <mxCell id="7muq7BeH3n2kPKs7xpSz-43" value="&lt;span style=&quot;background-color: rgb(255, 242, 204);&quot;&gt;&lt;span style=&quot;color: rgb(0, 0, 0); font-family: Helvetica; font-size: 15px; font-style: normal; font-variant-ligatures: normal; font-variant-caps: normal; font-weight: 400; letter-spacing: normal; orphans: 2; text-align: left; text-indent: 0px; text-transform: none; widows: 2; word-spacing: 0px; -webkit-text-stroke-width: 0px; white-space: normal; text-decoration-thickness: initial; text-decoration-style: initial; text-decoration-color: initial; float: none; display: inline !important;&quot;&gt;committed_blocks: [&amp;nbsp;&lt;/span&gt;&lt;span style=&quot;forced-color-adjust: none; color: rgb(0, 0, 0); font-family: Helvetica; font-size: 15px; font-style: normal; font-variant-ligatures: normal; font-variant-caps: normal; font-weight: 400; letter-spacing: normal; orphans: 2; text-align: left; text-indent: 0px; text-transform: none; widows: 2; word-spacing: 0px; -webkit-text-stroke-width: 0px; white-space: normal; text-decoration-thickness: initial; text-decoration-style: initial; text-decoration-color: initial;&quot;&gt;{&lt;/span&gt;&lt;/span&gt;&lt;div style=&quot;forced-color-adjust: none; color: rgb(0, 0, 0); font-family: Helvetica; font-size: 15px; font-style: normal; font-variant-ligatures: normal; font-variant-caps: normal; font-weight: 400; letter-spacing: normal; orphans: 2; text-align: left; text-indent: 0px; text-transform: none; widows: 2; word-spacing: 0px; -webkit-text-stroke-width: 0px; white-space: normal; text-decoration-thickness: initial; text-decoration-style: initial; text-decoration-color: initial;&quot;&gt;&lt;span style=&quot;forced-color-adjust: none; background-color: rgb(255, 242, 204);&quot;&gt;&amp;nbsp; block: val_b1,&lt;/span&gt;&lt;/div&gt;&lt;div style=&quot;forced-color-adjust: none; color: rgb(0, 0, 0); font-family: Helvetica; font-size: 15px; font-style: normal; font-variant-ligatures: normal; font-variant-caps: normal; font-weight: 400; letter-spacing: normal; orphans: 2; text-align: left; text-indent: 0px; text-transform: none; widows: 2; word-spacing: 0px; -webkit-text-stroke-width: 0px; white-space: normal; text-decoration-thickness: initial; text-decoration-style: initial; text-decoration-color: initial;&quot;&gt;&lt;span style=&quot;background-color: rgb(255, 242, 204);&quot;&gt;&amp;nbsp; commit_qc: {&lt;/span&gt;&lt;/div&gt;&lt;div style=&quot;forced-color-adjust: none; color: rgb(0, 0, 0); font-family: Helvetica; font-size: 15px; font-style: normal; font-variant-ligatures: normal; font-variant-caps: normal; font-weight: 400; letter-spacing: normal; orphans: 2; text-align: left; text-indent: 0px; text-transform: none; widows: 2; word-spacing: 0px; -webkit-text-stroke-width: 0px; white-space: normal; text-decoration-thickness: initial; text-decoration-style: initial; text-decoration-color: initial;&quot;&gt;&lt;span style=&quot;background-color: rgb(255, 242, 204);&quot;&gt;&amp;nbsp; &amp;nbsp; agg_sig: Set(n0, n1, n3, n4, n5),&lt;/span&gt;&lt;/div&gt;&lt;div style=&quot;forced-color-adjust: none; color: rgb(0, 0, 0); font-family: Helvetica; font-size: 15px; font-style: normal; font-variant-ligatures: normal; font-variant-caps: normal; font-weight: 400; letter-spacing: normal; orphans: 2; text-align: left; text-indent: 0px; text-transform: none; widows: 2; word-spacing: 0px; -webkit-text-stroke-width: 0px; white-space: normal; text-decoration-thickness: initial; text-decoration-style: initial; text-decoration-color: initial;&quot;&gt;&lt;span style=&quot;background-color: rgb(255, 242, 204);&quot;&gt;&amp;nbsp; &amp;nbsp; vote: { block_hash: val_b1,&lt;/span&gt;&lt;/div&gt;&lt;div style=&quot;forced-color-adjust: none; color: rgb(0, 0, 0); font-family: Helvetica; font-size: 15px; font-style: normal; font-variant-ligatures: normal; font-variant-caps: normal; font-weight: 400; letter-spacing: normal; orphans: 2; text-align: left; text-indent: 0px; text-transform: none; widows: 2; word-spacing: 0px; -webkit-text-stroke-width: 0px; white-space: normal; text-decoration-thickness: initial; text-decoration-style: initial; text-decoration-color: initial;&quot;&gt;&lt;span style=&quot;background-color: rgb(255, 242, 204);&quot;&gt;&amp;nbsp; &amp;nbsp; &amp;nbsp; block_number: 0, view: 1 }&lt;/span&gt;&lt;/div&gt;&lt;div style=&quot;forced-color-adjust: none; color: rgb(0, 0, 0); font-family: Helvetica; font-size: 15px; font-style: normal; font-variant-ligatures: normal; font-variant-caps: normal; font-weight: 400; letter-spacing: normal; orphans: 2; text-align: left; text-indent: 0px; text-transform: none; widows: 2; word-spacing: 0px; -webkit-text-stroke-width: 0px; white-space: normal; text-decoration-thickness: initial; text-decoration-style: initial; text-decoration-color: initial;&quot;&gt;&lt;span style=&quot;background-color: rgb(255, 242, 204);&quot;&gt;&amp;nbsp; }&lt;br style=&quot;forced-color-adjust: none;&quot;&gt;&lt;/span&gt;&lt;div style=&quot;forced-color-adjust: none;&quot;&gt;&lt;div style=&quot;forced-color-adjust: none;&quot;&gt;&lt;span style=&quot;background-color: rgb(255, 242, 204);&quot;&gt;} ]&lt;/span&gt;&lt;/div&gt;&lt;/div&gt;&lt;/div&gt;" style="text;whiteSpace=wrap;html=1;fillColor=#FFF2CC;strokeColor=none;" vertex="1" parent="1">
          <mxGeometry x="590" y="190" width="260" height="170" as="geometry" />
        </mxCell>
      </root>
    </mxGraphModel>
  </diagram>
</mxfile>
